<?xml version="1.0" encoding="UTF-8" standalone="no"?>
<svg
   xmlns:dc="http://purl.org/dc/elements/1.1/"
   xmlns:cc="http://creativecommons.org/ns#"
   xmlns:rdf="http://www.w3.org/1999/02/22-rdf-syntax-ns#"
   xmlns:svg="http://www.w3.org/2000/svg"
   xmlns="http://www.w3.org/2000/svg"
   xmlns:sodipodi="http://sodipodi.sourceforge.net/DTD/sodipodi-0.dtd"
   xmlns:inkscape="http://www.inkscape.org/namespaces/inkscape"
   viewBox="0 0 41.296875 51.857422"
   height="51.857422"
   width="41.296875"
   xml:space="preserve"
   id="svg2"
   version="1.1"
   inkscape:version="0.91 r13725"
   sodipodi:docname="ru.svg"><sodipodi:namedview
     pagecolor="#ffffff"
     bordercolor="#666666"
     borderopacity="1"
     objecttolerance="10"
     gridtolerance="10"
     guidetolerance="10"
     inkscape:pageopacity="0"
     inkscape:pageshadow="2"
     inkscape:window-width="1920"
     inkscape:window-height="1018"
     id="namedview4184"
     showgrid="false"
     fit-margin-top="0"
     fit-margin-left="0"
     fit-margin-right="0"
     fit-margin-bottom="0"
     inkscape:zoom="9.5647577"
     inkscape:cx="15.232643"
     inkscape:cy="26.792215"
     inkscape:window-x="-8"
     inkscape:window-y="-8"
     inkscape:window-maximized="1"
     inkscape:current-layer="svg2" /><metadata
     id="metadata8"><rdf:RDF><cc:Work
         rdf:about=""><dc:format>image/svg+xml</dc:format><dc:type
           rdf:resource="http://purl.org/dc/dcmitype/StillImage" /><dc:title /></cc:Work></rdf:RDF></metadata><defs
     id="defs6" /><path
     style="opacity:1;fill:#e72929;fill-opacity:1;fill-rule:nonzero;stroke:none;stroke-width:3;stroke-linecap:round;stroke-linejoin:miter;stroke-miterlimit:4;stroke-dasharray:none;stroke-dashoffset:0;stroke-opacity:1"
     d="m 6.5070955,4.4186745 c -2.0988259,0 -3.788783,1.6899569 -3.788783,3.7887835 l 0,37.715534 c 0,2.098826 1.6899571,3.788783 3.788783,3.788783 l 28.4917845,0 c 2.098826,0 3.788783,-1.689957 3.788783,-3.788783 l 0,-37.715534 c 0,-2.0988266 -1.689957,-3.7887835 -3.788783,-3.7887835 l -28.4917845,0 z m 13.0620055,1.5540665 2.386539,0 0,1.586478 1.608655,0 0,2.354129 c 1.064858,0.445256 2.01053,1.140413 2.700425,1.97542 0.952629,0.292576 1.31183,1.043422 1.31183,1.757068 l 0,2.579306 2.804484,0 0.134766,0.380414 c 0.346252,1.028057 0.475943,2.15428 0.475943,3.382781 0,3.79773 -1.399839,8.240233 -2.78572,11.702409 -2.087083,5.235897 -4.862867,9.977157 -6.332266,11.555703 -0.334941,0.34153 -0.61519,0.641493 -1.08324,0.66018 -0.01044,0.0041 -0.01849,0 -0.03241,0 l -0.0017,0 c -0.007,0 -0.02121,0.0041 -0.02729,0 -0.454131,-0.01869 -0.730266,-0.31865 -1.071299,-0.66018 -1.434557,-1.578546 -4.190584,-6.319806 -6.27593,-11.555703 -1.3737,-3.462176 -2.778896,-7.904679 -2.778896,-11.702409 0,-1.228501 0.150332,-2.354724 0.487885,-3.382781 l 0.121118,-0.380414 2.794249,0 0,-2.579306 c 0,-0.713646 0.362048,-1.464492 1.299889,-1.757068 0.665535,-0.835007 1.625366,-1.530164 2.688483,-1.97542 l 0,-2.354129 1.574538,0 0,-1.586478 z m 0.866592,0.8665919 0,1.5813611 -1.579655,0 0,0.701121 1.579655,0 0,1.605242 0.320707,0 0.0017,0 0.341178,0 0,-1.605242 1.606949,0 0,-0.701121 -1.606949,0 0,-1.5813611 -0.341178,0 -0.0017,0 -0.320707,0 z m -0.866592,3.7410181 c -0.956111,0.189656 -1.886514,0.60634 -2.637309,1.221417 0.385402,0.03915 0.762594,0.123494 1.064476,0.30706 0.371482,-0.561746 0.920346,-0.958846 1.572833,-1.156593 l 0,-0.371884 z m 2.386539,0 0,0.371884 c 0.695116,0.197747 1.244167,0.594847 1.606949,1.156593 0.310583,-0.183566 0.67991,-0.267911 1.066182,-0.30706 -0.746444,-0.615077 -1.678742,-1.031761 -2.673131,-1.221417 z M 20.7564,11.86318 c -1.518987,0 -2.031715,0.8946 -2.031715,1.668362 l 0.0034,2.6936 4.10608,0 0,-2.6936 c 0,-0.773762 -0.529243,-1.668362 -2.076069,-1.668362 l -0.0017,0 z m -4.544492,0.999652 c -0.98047,0 -1.090064,0.444147 -1.090064,0.783004 l 0,2.579306 2.500835,0 c -8.7e-4,-0.93723 -0.0017,-2.6936 -0.0017,-2.6936 0,-0.338075 -0.08912,-0.405533 -0.155236,-0.446944 -0.135718,-0.09961 -0.456927,-0.221766 -1.25383,-0.221766 z m 9.143573,0 c -0.798643,0 -1.127443,0.122153 -1.265771,0.221766 -0.05829,0.04141 -0.150118,0.108869 -0.150118,0.446944 l 0,2.6936 2.526424,0 0,-2.579306 c 0,-0.338857 -0.117886,-0.783004 -1.110535,-0.783004 z m -13.324713,4.472845 c -0.04872,0.164775 -0.08113,0.342874 -0.119411,0.522003 l 4.054902,0 c 1.767801,0 2.526424,0.428146 2.526424,1.453418 0,0.316065 -0.187111,0.656053 -0.475944,0.897299 0.205316,0.0809 1.049347,0.382334 1.168536,0.436708 0.254032,-0.125799 0.36156,-0.527772 0.235413,-0.707945 -0.04611,-0.06282 -0.10287,-0.13911 -0.250767,-0.204707 -0.115707,-0.04316 -0.317296,-0.06483 -0.317296,-0.06483 l 0,-0.438414 c 0,-0.408805 0.2887,-0.726538 0.747181,-0.852945 0.0174,-0.01871 0.02783,-0.03077 0.04435,-0.04947 0.258385,-0.205576 0.580255,-0.355982 1.090065,-0.375295 1.104005,0.03123 1.538712,0.671206 1.538712,1.301594 0,0.40402 -0.181764,0.68285 -0.264412,0.818828 0.0261,0.280308 0.213835,0.459995 0.313883,0.573179 0.123538,-0.05437 0.964994,-0.3558 1.16683,-0.436708 -0.285354,-0.241246 -0.460591,-0.581234 -0.460591,-0.897299 0,-1.025272 0.751167,-1.453418 2.50766,-1.453418 l 4.147019,0 c -0.02958,-0.179129 -0.06993,-0.357228 -0.114294,-0.522003 l -8.810925,0 -0.0017,0 -8.725631,0 z m 8.682985,1.572831 c -0.02262,0 -0.03789,0.0044 -0.06312,0.01024 l 0,-0.0034 c -0.564618,0.04993 -0.655062,0.440121 -0.655062,0.440121 0,0 0.183813,0.08674 0.33606,0.370178 l 0,0.0068 c 0.04697,0.08152 0.09074,0.178818 0.117707,0.290002 0.01218,0.07299 0.02559,0.158014 0.02559,0.264412 0,0.823089 -0.715017,1.30334 -1.050828,1.475596 l -0.201296,0.116001 c 0,0 -0.965268,-0.38253 -1.240182,-0.487885 -0.95698,-0.379921 -1.357889,-0.548673 -1.357889,-1.003064 l 0,-0.03071 c 0,-0.565749 0.385744,-0.75186 0.636297,-0.90924 0.107008,-0.07647 0.08766,-0.268133 0.01024,-0.339472 -0.05307,-0.05437 -0.148802,-0.175706 -1.305005,-0.175706 l -4.198198,0 c -0.02436,0.338161 -0.04265,0.670045 -0.04265,1.028652 0,0.992301 0.100943,2.102272 0.303648,3.299192 l 7.024858,-1.108828 c -0.08439,0.214796 -0.136472,0.45911 -0.136472,0.704532 0,1.010309 0.778699,1.827009 1.782656,1.827009 0.02175,0 0.03454,-0.0034 0.05629,-0.0034 l 0.0017,0 c 0.02175,0 0.04746,0.0034 0.06311,0.0034 1.017878,0 1.830422,-0.8167 1.830422,-1.827009 0,-0.245422 -0.05285,-0.489736 -0.14159,-0.704532 l 7.058975,1.108828 c 0.206186,-1.19692 0.315591,-2.306891 0.315591,-3.299192 0,-0.358607 -0.02167,-0.690491 -0.04777,-1.028652 l -4.300551,0 c -1.135325,0 -1.234844,0.121334 -1.289653,0.175706 -0.08787,0.07134 -0.109924,0.263001 0.01535,0.339472 0.245333,0.15738 0.62265,0.343491 0.62265,0.90924 l 0,0.03071 c 0,0.454391 -0.38873,0.623143 -1.357889,1.003064 -0.268824,0.105355 -1.253829,0.487885 -1.253829,0.487885 l -0.2183,-0.115998 c -0.331463,-0.172256 -1.050095,-0.652507 -1.044006,-1.475596 0,-0.451346 0.22006,-0.522341 0.22006,-0.866592 0,-0.277003 -0.189787,-0.511767 -0.472531,-0.511767 l -0.04435,0 z m 13.621536,3.947431 c 0.379311,0.31502 0.528385,0.44201 0.638002,0.916063 0.06351,0.330332 -0.08874,0.983207 -0.087,1.566008 l 0.757415,-0.378708 0.329237,0.673827 -0.12453,0.03923 -0.16206,-0.105765 -2.273951,1.170241 -0.05289,0.138177 -0.216648,0.09382 -0.636297,-1.473889 c -0.286224,-0.602548 0.08049,-1.266453 0.71818,-1.43636 0.516769,-0.150506 1.001347,0.01699 1.219711,0.429885 0.09918,-0.404455 0.110284,-0.664478 0.01024,-1.067888 -0.07395,-0.28544 -0.118102,-0.285297 -0.228589,-0.477649 l 0.109177,-0.087 z m -15.74537,0.491296 c -2.101875,0.324591 -5.115795,0.803192 -6.344208,0.996241 0.120057,0.567488 0.256962,1.127867 0.419649,1.728067 l 5.924559,-2.724308 z m 4.385845,0 5.958676,2.724308 c 0.160076,-0.6002 0.300461,-1.160579 0.419649,-1.728067 -1.240595,-0.193049 -4.28341,-0.67165 -6.378325,-0.996241 z m -16.4550214,0.269531 0.109177,0.09894 0.023883,0.235412 2.1681871,1.163419 0.2064127,-0.150119 0.1501184,0.06994 -0.4128255,0.876828 -0.203001,-0.08188 0.044353,-0.187648 -2.2637169,-1.166829 -0.2132363,0.18253 -0.1211183,-0.04265 0.5117672,-0.997946 z m 12.6252974,0.677238 -3.739313,1.777539 2.562247,0 1.177066,-1.777539 z m 3.259957,0 1.180476,1.777539 2.592953,0 -3.773429,-1.777539 z m 11.243523,0.247355 c -0.07334,-0.0013 -0.150331,0.0072 -0.232001,0.029 -0.786462,0.200443 -0.624894,1.087292 -0.33606,1.690537 l 1.470478,-0.738651 c -0.08069,-0.438546 -0.389024,-0.971736 -0.902417,-0.980886 z m -13.440711,0.131353 -0.928005,1.398831 0.928005,0 0,-1.398831 z m 1.113947,0 0,1.398831 0.931416,0 -0.931416,-1.398831 z m -15.5236051,0.397473 0.1671773,0.05288 0.015353,0.214942 2.2807758,0.909241 0.1637655,-0.07165 0.1791185,0.04265 -0.2217657,0.559531 -2.4257766,0.922888 1.6956554,0.363355 0.1347654,-0.102354 0.139883,0.04265 -0.172295,0.615827 -0.098942,-0.04606 L 7.5391593,28.44444 4.8336167,27.847378 4.9479114,27.458434 7.5374534,26.463901 5.9185632,25.831015 5.7223857,25.933369 5.5142671,25.856604 5.7991508,25.070188 Z M 35.950767,26.58331 c 0.379312,0.281352 0.54471,0.54009 0.648239,0.992828 0.220974,0.881117 -0.01994,1.692738 -1.136124,1.994186 -1.171865,0.363566 -1.706273,-0.411977 -1.948127,-1.322065 -0.0783,-0.269085 -0.08267,-0.463468 -0.129648,-0.760827 l 0.644827,-0.172295 0.0853,0.13306 c -0.254035,0.217495 -0.339403,0.555721 -0.255884,0.885356 0.117447,0.496151 0.678137,0.781204 1.154887,0.598768 l -0.325824,-1.461948 -0.271237,-0.110883 -0.03753,-0.145001 0.694298,-0.187647 0.029,0.12453 -0.09894,0.189354 0.366767,1.470478 c 0.567227,-0.01661 0.993439,-0.607746 0.875121,-1.168536 -0.07308,-0.357475 -0.503471,-0.747342 -0.970651,-0.800063 l 0,-0.114294 0.675533,-0.145001 z m -22.966406,0.59365 c 0.248815,0.828136 0.516468,1.688877 0.842711,2.570777 l 4.501845,0 0,-2.570777 -5.344556,0 z m 6.412444,0 0,3.6779 -5.153496,0 c 0.05481,0.139719 0.113205,0.276972 0.168884,0.419649 0.283614,0.730697 0.591628,1.437777 0.912652,2.149423 l 4.07196,0 0,7.67139 c 0.408892,0.590299 0.771156,1.064056 1.0713,1.388594 0.0896,0.08769 0.211702,0.224414 0.290001,0.290002 0.08787,-0.06558 0.224412,-0.202316 0.30706,-0.290002 0.299274,-0.324538 0.659031,-0.798295 1.066182,-1.388594 l 0,-7.67139 4.124844,0 c 0.321023,-0.711646 0.627961,-1.418726 0.922886,-2.149423 0.05829,-0.142677 0.114978,-0.27993 0.167178,-0.419649 l -5.214908,0 0,-3.6779 -2.734543,0 z m 3.841665,0 0,2.570777 4.524023,0 c 0.323633,-0.8819 0.60744,-1.742641 0.861474,-2.570777 l -5.385497,0 z M 6.1113289,28.930615 c 0.1375522,-0.0094 0.2706154,0.04689 0.3241191,0.16206 0.093958,0.181826 -9.782e-4,0.390182 -0.1688831,0.518591 -0.1766062,0.07987 -0.3889453,9.61e-4 -0.4759435,-0.175707 -0.080038,-0.176693 6.701e-4,-0.391677 0.1842362,-0.474238 0.044151,-0.01803 0.09062,-0.02758 0.1364713,-0.03071 z m 27.6968391,0.841005 0.808592,0.513473 c -0.08178,0.02036 -0.15,0.04724 -0.199589,0.087 -0.08439,0.08604 -0.08503,0.437857 -0.09894,0.96724 l 2.59466,-0.03411 0.04947,-0.114295 0.134765,0.0068 0.0052,0.928004 -0.07677,0 -0.114295,-0.220059 -2.572483,0.04435 c 0.0035,0.280393 -0.03736,0.696917 0.04094,0.75912 0.02958,0.02888 0.08055,0.06045 0.148413,0.08359 l -0.680651,0.44865 0.143295,-0.46912 0.01194,-2.359247 -0.194471,-0.641415 z m -29.1843757,0.255883 0.170589,0.214942 2.5622479,0.06994 0.088706,-0.206413 0.203001,-0.0034 -0.098942,1.359595 c -0.061769,0.807082 -0.5065884,1.673709 -1.4244188,1.72295 -0.978729,0.0034 -1.7074761,-0.866028 -1.6700668,-1.583067 l 0,-1.571125 0.1688831,-0.0034 z m 0.203001,0.881945 c 0,0 -0.031217,0.117797 -0.00512,0.574885 0.0348,0.482579 0.6191884,1.057559 1.3186534,1.040594 0.4976293,-0.05203 0.9198522,-0.513097 0.9877107,-0.854651 0.066118,-0.291183 0.044251,-0.42345 0.049471,-0.682356 L 4.8267911,30.90945 Z m 29.0410807,2.601484 0.214943,0.01876 0.02218,0.184236 2.502541,0.443532 0.182531,-0.214942 0.121117,0.0086 -0.199589,1.062769 -0.138177,-0.058 -0.08359,-0.225178 -2.439423,-0.419649 -0.156943,0.192766 -0.158647,-0.01706 0.133059,-0.975769 z M 6.5088014,33.662756 c 0.9024902,-0.08951 1.3109212,0.606036 1.5370075,1.400537 0.073949,0.267779 0.078455,0.461027 0.1228241,0.752297 l -0.6345912,0.177413 -0.087,-0.129648 C 7.6975963,35.638465 7.7753041,35.301857 7.6943958,34.979704 7.5699884,34.48625 7.0032079,34.20531 6.5395078,34.392877 l 0.3343546,1.455125 0.2575895,0.107471 0.046059,0.139883 -0.6772387,0.174001 -0.044353,-0.139883 0.097236,-0.151824 -0.3684723,-1.463655 c -0.565488,0.03297 -0.984108,0.61662 -0.8631807,1.168536 0.080038,0.353386 0.5034717,0.753223 0.9706518,0.801768 l 0,0.110883 -0.6704151,0.138177 C 5.2415566,36.474452 5.0618451,36.201035 4.9496176,35.752472 c -0.2192353,-0.87233 6.952e-4,-1.683206 1.1412408,-2.001009 0.149963,-0.04685 0.289016,-0.07592 0.4179431,-0.08871 z m 9.2919866,0.87171 c 0.84388,1.79773 1.720786,3.460509 2.52813,4.820847 l 0,-4.820847 -2.52813,0 z m 7.437682,0 0,4.820847 c 0.805604,-1.360338 1.676453,-3.023117 2.526425,-4.820847 l -2.526425,0 z m 10.503168,0.349707 0.648239,0.249061 -0.04777,0.174001 c -0.342773,0.01766 -0.588211,0.172755 -0.735239,0.475943 -0.242725,0.485885 0.13534,0.92147 0.585121,1.272595 0.4463,0.33877 1.42115,0.192411 1.675185,-0.312178 0.157466,-0.338859 0.06698,-0.841339 -0.261002,-1.177065 l 0.109177,-0.116001 0.588533,0.271237 c 0.121797,0.480838 0.102194,0.822322 -0.107472,1.262359 -0.421941,0.82309 -1.038201,1.373681 -2.205717,0.893887 -1.134454,-0.511462 -1.007112,-1.447352 -0.626062,-2.323423 0.116579,-0.269173 0.230846,-0.416555 0.377003,-0.670416 z m -25.4262984,1.438067 0.4350022,0.899004 -0.203001,0.09553 -0.1211183,-0.146707 -2.3455997,1.037182 0.058,0.264412 -0.109177,0.06312 -0.499826,-0.999652 0.1415889,-0.02047 0.203001,0.15353 2.3029525,-1.006475 -0.00342,-0.276355 0.1415889,-0.06312 z m 24.1588224,1.373241 0.197883,0.08359 -0.04435,0.180824 2.311482,1.267477 0.226883,-0.131354 0.119413,0.0034 -0.539062,0.951888 -0.09724,-0.102353 -0.01876,-0.232002 -2.152834,-1.209476 -0.218354,0.133059 -0.146707,-0.07336 0.361649,-0.87171 z M 8.0543384,38.241366 c 0.1397135,-0.0026 0.2973905,0.07996 0.3991783,0.218354 0.077428,0.17678 -0.00596,0.394945 -0.1808243,0.467415 -0.1800862,0.08491 -0.3882117,-0.0013 -0.46912,-0.180824 -0.083518,-0.182436 -0.011084,-0.391016 0.1194123,-0.472533 0.040019,-0.02081 0.084783,-0.03155 0.1313537,-0.03241 z m 1.5830665,0.540768 0.3497075,0.482767 -0.5527085,2.52813 1.2470051,-1.265771 -0.01706,-0.172295 0.114294,-0.09724 0.417944,0.491296 -0.09041,0.058 -0.168883,0.03071 -1.9856559,1.975422 -0.2712366,-0.307061 0.5731793,-2.688484 -1.4022422,1.00477 -0.018764,0.216649 -0.1791185,0.145 -0.5254143,-0.682356 0.12453,-0.107472 0.1944715,0.102354 2.0368334,-1.414183 0.030706,-0.180825 0.1228241,-0.119412 z m 21.6528681,0.861474 0.175707,0.119413 -0.08359,0.206413 1.949833,1.617184 c 0,0 0.572789,-0.499768 0.636298,-0.916064 0.02871,-0.208316 -0.04435,-0.554414 -0.04435,-0.554414 l 0.213235,-0.214942 0.322414,0.827357 -1.502889,1.721244 -0.08359,-0.121119 0.03753,-0.221765 -1.895244,-1.588185 -0.216648,0.09894 -0.180825,-0.12453 0.672121,-0.849534 z m -1.030356,1.248713 0.462295,0.48959 -0.06653,0.136472 c -0.332332,-0.120641 -0.661261,-0.0305 -0.910945,0.196177 -0.385402,0.334743 -0.373528,0.976019 0.01535,1.298182 l 1.142947,-0.975769 -0.03071,-0.286589 0.09894,-0.102354 0.475943,0.470826 -0.109177,0.102353 -0.180824,-0.0017 -1.149771,1.067888 c 0.287965,0.485972 0.997157,0.590983 1.429537,0.175706 0.277524,-0.237209 0.416165,-0.800083 0.245648,-1.236771 l 0.100648,-0.04777 0.443531,0.523708 c -0.05133,0.464893 -0.203009,0.745017 -0.551002,1.059359 -0.683805,0.644673 -1.497315,0.832509 -2.304658,-0.02388 -0.856062,-0.912124 -0.410965,-1.719371 0.27806,-2.369482 0.199226,-0.1988 0.366244,-0.297528 0.610709,-0.475944 z m -18.404854,0.742062 c 0.298144,0.01679 0.561056,0.114644 0.78812,0.312178 l 0.04094,0.03241 0.01365,0.01365 0.01876,0.01194 0.01876,0.01877 0.03923,0.04606 c 0.277524,0.286146 0.363797,0.65299 0.341178,1.079829 -0.0261,0.447562 -0.243815,0.87799 -0.598768,1.173653 -0.601156,0.49956 -1.402889,0.525081 -2.023186,0.0086 l -0.0017,0 -0.0068,-0.0052 -0.0068,-0.0068 c -0.5793982,-0.574318 -0.58445,-1.368169 -0.09552,-1.983951 0.278394,-0.405419 0.707581,-0.64603 1.161711,-0.692591 0.107225,-0.01164 0.211091,-0.01412 0.310473,-0.0086 z m 0.119411,0.414532 c -0.400789,0.0055 -0.793443,0.417954 -0.924592,0.551002 -0.212276,0.22429 -0.492201,0.66079 -0.489591,0.989416 0.0087,0.169238 0.06996,0.285934 0.199589,0.380414 l 0.03924,0.04435 c 0.138327,0.134237 0.28586,0.187638 0.453767,0.185941 0.393231,-0.0085 0.774238,-0.369559 0.873415,-0.470825 0.144418,-0.151908 0.803616,-0.97868 0.317297,-1.456831 l -0.07506,-0.06824 c -0.125931,-0.11367 -0.260465,-0.157077 -0.394061,-0.155229 z m 16.659729,0.179118 c 0,0 -0.149933,0.227508 -0.203001,0.387237 -0.03306,0.09244 -0.04265,0.255884 -0.04265,0.255884 0,0 -0.233932,0.04382 -0.353119,0.08018 -0.369743,0.109774 -0.945064,0.518591 -0.945064,0.518591 l 0.41112,0.859769 c 0,0 0.588248,-0.200807 0.820533,-0.423061 0.103528,-0.09957 0.243943,-0.281472 0.243943,-0.281472 l 0.293412,0.595356 c 0,0 -0.243485,-0.0033 -0.397472,0.03241 -0.307974,0.06627 -0.789827,0.414532 -0.789827,0.414532 l 0.578297,1.177065 0.214942,0.03241 0.08188,0.09894 -0.812004,0.44012 -0.10406,-0.138178 0.05459,-0.197883 -1.14977,-2.284187 -0.235413,0.0034 -0.04947,-0.175706 2.383129,-1.395419 z m -14.404541,0.899004 0.506651,0.216648 -0.08018,1.857715 1.047416,-1.219712 -0.05117,-0.09723 0.08871,-0.06482 0.735239,0.298531 -0.01024,0.187648 -0.127941,0.06312 -0.330943,2.524717 0.179118,0.208119 -0.04777,0.150118 -0.864886,-0.382119 0.05117,-0.182531 0.155235,-0.03753 0.240531,-1.99248 -1.535302,1.830421 -0.308767,-0.100648 0.211532,-2.297835 -1.243595,1.490949 0.109177,0.209825 -0.04777,0.110882 -0.677239,-0.40259 0.07506,-0.168883 0.238825,0.01876 1.63595,-1.869656 -0.07847,-0.197883 0.129648,-0.153531 z m 10.047697,1.255535 0.168882,0.653356 -0.131353,0.08359 c -0.217496,-0.264046 -0.553059,-0.347728 -0.883651,-0.27806 -0.48719,0.128462 -0.794872,0.706407 -0.624356,1.182183 l 1.461948,-0.332649 0.119412,-0.264413 0.143295,-0.03753 0.162059,0.680651 -0.151824,0.03411 -0.148412,-0.09382 -1.439772,0.341179 c 0.02523,0.549175 0.582611,0.962351 1.146359,0.847827 0.363652,-0.06117 0.773415,-0.457985 0.740356,-0.921181 l 0.109177,0.0052 0.216648,0.656768 c -0.283613,0.364643 -0.547159,0.538425 -1.004769,0.636296 -0.883902,0.191329 -1.686263,-0.0095 -1.948128,-1.12077 -0.383661,-1.209134 0.393334,-1.689875 1.301595,-1.95495 0.278394,-0.07816 0.465,-0.07931 0.762534,-0.117707 z m -6.855976,0.09041 0.96724,0.174001 -0.01535,0.214942 -0.235412,0.01024 -0.496415,2.482071 0.232001,0.174001 -0.01194,0.121118 -1.052534,-0.232001 0.06653,-0.13306 0.25759,-0.07165 0.48959,-2.398483 -0.242236,-0.175706 0.04094,-0.165472 z m 1.530184,0.257589 0.566357,0.05629 1.637655,2.099951 -0.172296,-1.745126 -0.150118,-0.100647 0.01024,-0.150118 0.634592,-0.0034 -0.0086,0.110883 -0.09382,0.155236 0.223471,2.73966 -0.404296,0.0034 -1.721243,-2.188658 -0.110884,1.712714 0.145,0.155236 -0.01706,0.230295 -0.820534,-0.01024 0.0017,-0.167178 0.208119,-0.09553 0.197884,-2.483777 -0.109177,-0.146706 -0.01706,-0.172295 z m 6.951505,0.37359 c 0.14212,-0.0034 0.273124,0.07566 0.329237,0.206413 0.0696,0.181818 10e-4,0.393046 -0.182531,0.481062 -0.177474,0.08088 -0.388843,-0.0048 -0.481061,-0.182531 -0.0809,-0.183514 0.0066,-0.390631 0.19106,-0.472531 0.0472,-0.02056 0.09592,-0.03129 0.143295,-0.03241 z"
     id="rect4186"
     inkscape:connector-curvature="0" /><g
     transform="matrix(0.99606761,0,0,-0.99606761,-185.57196,48.629241)"
     id="g10"><g
       transform="scale(0.1,0.1)"
       id="g12" /></g></svg>