<?xml version="1.0" encoding="UTF-8" standalone="no"?>
<!-- Created with Inkscape (http://www.inkscape.org/) -->

<svg
   xmlns:dc="http://purl.org/dc/elements/1.1/"
   xmlns:cc="http://creativecommons.org/ns#"
   xmlns:rdf="http://www.w3.org/1999/02/22-rdf-syntax-ns#"
   xmlns:svg="http://www.w3.org/2000/svg"
   xmlns="http://www.w3.org/2000/svg"
   xmlns:sodipodi="http://sodipodi.sourceforge.net/DTD/sodipodi-0.dtd"
   xmlns:inkscape="http://www.inkscape.org/namespaces/inkscape"
   width="12.567299mm"
   height="13.546667mm"
   viewBox="0 0 44.529798 48"
   id="svg4719"
   version="1.1"
   inkscape:version="0.91 r13725"
   sodipodi:docname="website.svg">
  <defs
     id="defs4721" />
  <sodipodi:namedview
     id="base"
     pagecolor="#ffffff"
     bordercolor="#666666"
     borderopacity="1.0"
     inkscape:pageopacity="0.0"
     inkscape:pageshadow="2"
     inkscape:zoom="5.6"
     inkscape:cx="13.413924"
     inkscape:cy="76.715837"
     inkscape:document-units="px"
     inkscape:current-layer="layer1"
     showgrid="false"
     showguides="true"
     inkscape:guide-bbox="true"
     fit-margin-top="0"
     fit-margin-left="0"
     fit-margin-right="0"
     fit-margin-bottom="0"
     inkscape:window-width="1920"
     inkscape:window-height="1018"
     inkscape:window-x="-8"
     inkscape:window-y="-8"
     inkscape:window-maximized="1" />
  <metadata
     id="metadata4724">
    <rdf:RDF>
      <cc:Work
         rdf:about="">
        <dc:format>image/svg+xml</dc:format>
        <dc:type
           rdf:resource="http://purl.org/dc/dcmitype/StillImage" />
        <dc:title></dc:title>
      </cc:Work>
    </rdf:RDF>
  </metadata>
  <g
     inkscape:label="Laag 1"
     inkscape:groupmode="layer"
     id="layer1"
     transform="translate(227.14285,-509.72022)">
    <path
       style="opacity:1;fill:#909090;fill-opacity:1;fill-rule:nonzero;stroke:none;stroke-width:3;stroke-linecap:round;stroke-linejoin:miter;stroke-miterlimit:4;stroke-dasharray:none;stroke-dashoffset:0;stroke-opacity:1"
       d="m -225.1836,509.72022 c -1.08538,0 -1.95925,0.87387 -1.95925,1.95925 l 0,44.0815 c 0,1.08538 0.87387,1.95925 1.95925,1.95925 l 40.61131,0 c 1.08538,0 1.95924,-0.87387 1.95924,-1.95925 l 0,-44.0815 c 0,-1.08538 -0.87386,-1.95925 -1.95924,-1.95925 l -40.61131,0 z m 11.43527,2.28579 a 1.5180616,1.5180616 0 0 1 1.51806,1.51806 1.5180616,1.5180616 0 0 1 -1.51806,1.51806 1.5180616,1.5180616 0 0 1 -1.51806,-1.51806 1.5180616,1.5180616 0 0 1 1.51806,-1.51806 z m -4.51781,0.0229 a 1.5180616,1.5180616 0 0 1 1.51806,1.51806 1.5180616,1.5180616 0 0 1 -1.51806,1.51806 1.5180616,1.5180616 0 0 1 -1.51807,-1.51806 1.5180616,1.5180616 0 0 1 1.51807,-1.51806 z m -4.61191,0.005 a 1.5180616,1.5180616 0 0 1 1.51807,1.51806 1.5180616,1.5180616 0 0 1 -1.51807,1.51807 1.5180616,1.5180616 0 0 1 -1.51806,-1.51807 1.5180616,1.5180616 0 0 1 1.51806,-1.51806 z m 1.52202,7.31753 32.88501,0 c 1.08538,0 1.95924,0.87387 1.95924,1.95925 l 0,30.02204 c 0,1.08538 -0.87386,1.95925 -1.95924,1.95925 l -32.88501,0 c -1.08538,0 -1.95925,-0.87387 -1.95925,-1.95925 l 0,-30.02204 c 0,-1.08538 0.87387,-1.95925 1.95925,-1.95925 z m 3.7572,5.90463 c -0.56636,0 -1.02232,0.45596 -1.02232,1.02232 l 0,0.61355 c 0,0.56636 0.45596,1.02232 1.02232,1.02232 l 13.49494,0 c 0.56636,0 1.02232,-0.45596 1.02232,-1.02232 l 0,-0.61355 c 0,-0.56636 -0.45596,-1.02232 -1.02232,-1.02232 l -13.49494,0 z m 0.0126,5.17722 c -0.56636,0 -1.02232,0.45596 -1.02232,1.02232 l 0,0.61355 c 0,0.56637 0.45596,1.02232 1.02232,1.02232 l 9.08465,0 c 0.56636,0 1.02232,-0.45595 1.02232,-1.02232 l 0,-0.61355 c 0,-0.56636 -0.45596,-1.02232 -1.02232,-1.02232 l -9.08465,0 z m 12.94385,0.0498 c -0.56636,0 -1.02232,0.45596 -1.02232,1.02232 l 0,0.61276 c 0,0.56637 0.45596,1.02232 1.02232,1.02232 l 9.08544,0 c 0.56636,0 1.02232,-0.45595 1.02232,-1.02232 l 0,-0.61276 c 0,-0.56636 -0.45596,-1.02232 -1.02232,-1.02232 l -9.08544,0 z m -13.00473,4.91552 c -0.56636,0 -1.02232,0.45596 -1.02232,1.02232 l 0,0.61355 c 0,0.56636 0.45596,1.02232 1.02232,1.02232 l 13.49494,0 c 0.56636,0 1.02231,-0.45596 1.02231,-1.02232 l 0,-0.61355 c 0,-0.56636 -0.45595,-1.02232 -1.02231,-1.02232 l -13.49494,0 z m 17.94238,0 c -0.56636,0 -1.02232,0.45596 -1.02232,1.02232 l 0,0.61355 c 0,0.56636 0.45596,1.02232 1.02232,1.02232 l 8.62528,0 c 0.56636,0 1.02232,-0.45596 1.02232,-1.02232 l 0,-0.61355 c 0,-0.56636 -0.45596,-1.02232 -1.02232,-1.02232 l -8.62528,0 z m -17.94238,4.87914 c -0.56636,0 -1.02232,0.45596 -1.02232,1.02232 l 0,0.61355 c 0,0.56637 0.45596,1.02232 1.02232,1.02232 l 13.49494,0 c 0.56636,0 1.02231,-0.45595 1.02231,-1.02232 l 0,-0.61355 c 0,-0.56636 -0.45595,-1.02232 -1.02231,-1.02232 l -13.49494,0 z m 19.96963,4.7566 c -0.56637,0 -1.02232,0.45595 -1.02232,1.02232 l 0,0.61355 c 0,0.56636 0.45595,1.02232 1.02232,1.02232 l 6.22958,0 c 0.56637,0 1.02232,-0.45596 1.02232,-1.02232 l 0,-0.61355 c 0,-0.56637 -0.45595,-1.02232 -1.02232,-1.02232 l -6.22958,0 z m -9.97572,0.0727 c -0.56637,0 -1.02232,0.45595 -1.02232,1.02232 l 0,0.61276 c 0,0.56636 0.45595,1.02232 1.02232,1.02232 l 6.22958,0 c 0.56637,0 1.02232,-0.45596 1.02232,-1.02232 l 0,-0.61276 c 0,-0.56637 -0.45595,-1.02232 -1.02232,-1.02232 l -6.22958,0 z m -9.95991,0.0111 c -0.56636,0 -1.02232,0.45595 -1.02232,1.02232 l 0,0.61355 c 0,0.56636 0.45596,1.02231 1.02232,1.02231 l 6.22959,0 c 0.56636,0 1.02232,-0.45595 1.02232,-1.02231 l 0,-0.61355 c 0,-0.56637 -0.45596,-1.02232 -1.02232,-1.02232 l -6.22959,0 z"
       id="rect5278"
       inkscape:connector-curvature="0" />
  </g>
</svg>
