<?xml version="1.0" encoding="UTF-8" standalone="no"?>
<svg
   xmlns:dc="http://purl.org/dc/elements/1.1/"
   xmlns:cc="http://creativecommons.org/ns#"
   xmlns:rdf="http://www.w3.org/1999/02/22-rdf-syntax-ns#"
   xmlns:svg="http://www.w3.org/2000/svg"
   xmlns="http://www.w3.org/2000/svg"
   xmlns:sodipodi="http://sodipodi.sourceforge.net/DTD/sodipodi-0.dtd"
   xmlns:inkscape="http://www.inkscape.org/namespaces/inkscape"
   enable-background="new 0 0 512 512"
   height="48"
   id="Layer_1"
   version="1.1"
   viewBox="0 0 52.682381 48"
   width="52.682381"
   xml:space="preserve"
   inkscape:version="0.91 r13725"
   sodipodi:docname="github.svg"><metadata
     id="metadata11"><rdf:RDF><cc:Work
         rdf:about=""><dc:format>image/svg+xml</dc:format><dc:type
           rdf:resource="http://purl.org/dc/dcmitype/StillImage" /><dc:title></dc:title></cc:Work></rdf:RDF></metadata><defs
     id="defs9" /><sodipodi:namedview
     pagecolor="#ffffff"
     bordercolor="#666666"
     borderopacity="1"
     objecttolerance="10"
     gridtolerance="10"
     guidetolerance="10"
     inkscape:pageopacity="0"
     inkscape:pageshadow="2"
     inkscape:window-width="1920"
     inkscape:window-height="1018"
     id="namedview7"
     showgrid="false"
     fit-margin-top="0"
     fit-margin-left="0"
     fit-margin-right="0"
     fit-margin-bottom="0"
     inkscape:zoom="10.429825"
     inkscape:cx="20.172157"
     inkscape:cy="33.954055"
     inkscape:window-x="-8"
     inkscape:window-y="-8"
     inkscape:window-maximized="1"
     inkscape:current-layer="Layer_1" /><g
     id="g3"
     transform="matrix(0.09558914,0,0,0.09558914,0.22138841,-0.0286505)"><path
       d="m 300.85679,370.66192 c 57.30158,-6.76684 118.24675,-27.60147 118.24675,-126.57463 0,-28.13101 -9.90616,-51.05624 -26.04043,-68.76993 2.6029,-6.76569 10.92963,-32.29381 -3.14048,-67.71085 0,0 -20.83578,-6.77488 -69.79224,26.03928 -20.83579,-5.72385 -43.75297,-9.37663 -65.10911,-9.37663 -21.88568,0 -44.8109,3.65278 -65.12634,9.37663 -49.48715,-32.81416 -70.32179,-26.03928 -70.32179,-26.03928 -14.06091,35.41704 -5.72384,60.94516 -3.1221,67.71085 -16.1515,17.71255 -26.048466,40.63892 -26.048466,68.76993 0,98.97316 60.945176,119.80779 118.246736,126.57463 -7.28717,6.26256 -14.0609,18.23289 -16.6638,34.90474 -14.59045,6.24649 -52.61843,18.23289 -75.53447,-21.35613 0,0 -13.5486,-24.47824 -39.06868,-26.03928 0,0 -25.528119,-0.52035 -2.082545,15.61276 0,0 17.184155,7.82477 28.651365,37.50764 0,0 15.62196,49.49519 87.50479,33.86289 l 0,44.27332 c 0,6.78407 -5.20349,14.59045 -18.2237,12.50906 C 71.128992,468.07288 -2.3160414,371.18112 -2.3160414,257.62786 -2.3160414,115.41404 112.79942,0.29972545 255.02128,0.29972545 c 141.68542,0 257.32927,115.11545455 256.80892,257.32813455 0,113.55326 -73.45307,209.92467 -175.54947,244.30906 -13.02825,2.60289 -18.23289,-5.20349 -18.23289,-12.50906 l 0,-71.3533 c 10e-4,-23.97626 -7.82362,-39.58902 -17.19105,-47.41264 z m 247.9607,-112.50568 c -392.08054,195.86415 -196.04028,97.93208 0,0 z"
       id="path5"
       inkscape:connector-curvature="0"
       style="clip-rule:evenodd;fill:#0d2636;fill-rule:evenodd"
       sodipodi:nodetypes="cscccscccscccccccscssccsccccc" /></g></svg>