<?xml version="1.0" encoding="UTF-8" standalone="no"?>
<svg
   xmlns:dc="http://purl.org/dc/elements/1.1/"
   xmlns:cc="http://creativecommons.org/ns#"
   xmlns:rdf="http://www.w3.org/1999/02/22-rdf-syntax-ns#"
   xmlns:svg="http://www.w3.org/2000/svg"
   xmlns="http://www.w3.org/2000/svg"
   xmlns:sodipodi="http://sodipodi.sourceforge.net/DTD/sodipodi-0.dtd"
   xmlns:inkscape="http://www.inkscape.org/namespaces/inkscape"
   enable-background="new 0 0 128 128"
   height="48"
   id="Layer_1"
   version="1.1"
   viewBox="0 0 48 48"
   width="48"
   xml:space="preserve"
   inkscape:version="0.91 r13725"
   sodipodi:docname="instagram.svg"><metadata
     id="metadata28"><rdf:RDF><cc:Work
         rdf:about=""><dc:format>image/svg+xml</dc:format><dc:type
           rdf:resource="http://purl.org/dc/dcmitype/StillImage" /><dc:title></dc:title></cc:Work></rdf:RDF></metadata><defs
     id="defs26" /><sodipodi:namedview
     pagecolor="#ffffff"
     bordercolor="#666666"
     borderopacity="1"
     objecttolerance="10"
     gridtolerance="10"
     guidetolerance="10"
     inkscape:pageopacity="0"
     inkscape:pageshadow="2"
     inkscape:window-width="1920"
     inkscape:window-height="1018"
     id="namedview24"
     showgrid="false"
     inkscape:zoom="5.2149125"
     inkscape:cx="-0.43061163"
     inkscape:cy="64"
     inkscape:window-x="-8"
     inkscape:window-y="-8"
     inkscape:window-maximized="1"
     inkscape:current-layer="Layer_1"
     fit-margin-top="0"
     fit-margin-left="0"
     fit-margin-right="0"
     fit-margin-bottom="0" /><linearGradient
     gradientTransform="matrix(0.375,0,0,-0.375,222.75,237.375)"
     gradientUnits="userSpaceOnUse"
     id="SVGID_1_"
     x1="-577.51221"
     x2="-482.48792"
     y1="501.14551"
     y2="636.85437"><stop
       offset="0"
       style="stop-color:#FFB900"
       id="stop4" /><stop
       offset="1"
       style="stop-color:#9100EB"
       id="stop6" /></linearGradient><path
     style="fill:url(#SVGID_1_)"
     d="M 6,0 C 2.7,0 0,2.7 0,6 l 0,36 c 0,3.3 2.7,6 6,6 l 36,0 c 3.3,0 6,-2.7 6,-6 L 48,6 C 48,2.7 45.3,0 42,0 L 6,0 Z m 9.75,6 16.5,0 C 37.626375,6 42,10.374 42,15.75 l 0,16.5 C 42,37.626375 37.626375,42 32.25,42 l -16.5,0 C 10.374,42 6,37.626375 6,32.25 L 6,15.75 C 6,10.374 10.374,6 15.75,6 Z m 0,3 C 12.028125,9 9,12.028125 9,15.75 l 0,16.5 C 9,35.971875 12.028125,39 15.75,39 l 16.5,0 C 35.971875,39 39,35.971875 39,32.25 l 0,-16.5 C 39,12.028125 35.971875,9 32.25,9 l -16.5,0 z m 17.8125,3.375 A 2.0625,2.0625 0 0 1 35.625,14.4375 2.0625,2.0625 0 0 1 33.5625,16.5 2.0625,2.0625 0 0 1 31.5,14.4375 2.0625,2.0625 0 0 1 33.5625,12.375 Z M 24,15 c 4.962375,0 9,4.03725 9,9 0,4.962375 -4.037625,9 -9,9 -4.96275,0 -9,-4.037625 -9,-9 0,-4.96275 4.03725,-9 9,-9 z m 0,3 c -3.30825,0 -6,2.69175 -6,6 0,3.30825 2.69175,6 6,6 3.30825,0 6,-2.69175 6,-6 0,-3.30825 -2.69175,-6 -6,-6 z"
     id="path8"
     inkscape:connector-curvature="0" /><g
     id="g10"
     transform="translate(0,-80)"><g
       id="g12" /><g
       id="g16" /><g
       id="g20" /></g></svg>