<?xml version="1.0" encoding="UTF-8" standalone="no"?>
<!-- Created with Inkscape (http://www.inkscape.org/) -->

<svg
   xmlns:dc="http://purl.org/dc/elements/1.1/"
   xmlns:cc="http://creativecommons.org/ns#"
   xmlns:rdf="http://www.w3.org/1999/02/22-rdf-syntax-ns#"
   xmlns:svg="http://www.w3.org/2000/svg"
   xmlns="http://www.w3.org/2000/svg"
   xmlns:sodipodi="http://sodipodi.sourceforge.net/DTD/sodipodi-0.dtd"
   xmlns:inkscape="http://www.inkscape.org/namespaces/inkscape"
   width="48"
   height="48"
   id="svg3070"
   version="1.1"
   inkscape:version="0.91 r13725"
   sodipodi:docname="linkedin.svg">
  <defs
     id="defs3072" />
  <sodipodi:namedview
     id="base"
     pagecolor="#ffffff"
     bordercolor="#666666"
     borderopacity="1.0"
     inkscape:pageopacity="0.0"
     inkscape:pageshadow="2"
     inkscape:zoom="2.8"
     inkscape:cx="-80.593337"
     inkscape:cy="31.560332"
     inkscape:document-units="px"
     inkscape:current-layer="layer1"
     showgrid="false"
     fit-margin-top="0"
     fit-margin-left="0"
     fit-margin-right="0"
     fit-margin-bottom="0"
     inkscape:window-width="1920"
     inkscape:window-height="1018"
     inkscape:window-x="-8"
     inkscape:window-y="-8"
     inkscape:window-maximized="1" />
  <metadata
     id="metadata3075">
    <rdf:RDF>
      <cc:Work
         rdf:about="">
        <dc:format>image/svg+xml</dc:format>
        <dc:type
           rdf:resource="http://purl.org/dc/dcmitype/StillImage" />
        <dc:title></dc:title>
      </cc:Work>
    </rdf:RDF>
  </metadata>
  <g
     inkscape:label="Layer 1"
     inkscape:groupmode="layer"
     id="layer1"
     transform="translate(-420.14908,-418.27924)">
    <g
       transform="matrix(0.51097614,0,0,-0.50775629,302.8575,474.25656)"
       id="g3019">
      <path
         style="fill:#006699;fill-opacity:1;fill-rule:nonzero;stroke:none"
         d="m 219.48242,1.7832031 c -3.09234,0 -5.59961,2.4471626 -5.59961,5.4628907 l 0,65.3242182 c 0,3.016748 2.50727,5.460938 5.59961,5.460938 l 64.56836,0 c 3.09224,0 5.59961,-2.44419 5.59961,-5.460938 l 0,-65.3242182 c 0,-3.0157281 -2.50737,-5.4628907 -5.59961,-5.4628907 l -64.56836,0 z m 11.72266,12.7988279 c 3.91504,0 6.32406,2.570789 6.39844,5.949219 0,3.304056 -2.48387,5.949219 -6.47461,5.949219 l -0.0742,0 c -3.84047,0 -6.32422,-2.645163 -6.32422,-5.949219 0,-3.37843 2.55997,-5.949219 6.47461,-5.949219 z m 33.73633,15.791016 c 7.52923,0 13.17382,4.920669 13.17382,15.496094 l 0,19.742187 -11.44335,0 0,-18.419922 c 0,-4.628531 -1.65586,-7.785156 -5.79688,-7.785156 -3.16142,0 -5.04381,2.129554 -5.87109,4.185547 -0.30219,0.735593 -0.37696,1.762 -0.37696,2.791015 l 0,19.228516 -11.44336,0 c 0,0 0.15018,-31.198987 0,-34.429687 l 11.44336,0 0,4.878906 c 1.5196,-2.346579 4.23522,-5.6875 10.31446,-5.6875 z m -10.31446,5.6875 c -0.0236,0.03646 -0.0531,0.07732 -0.0762,0.113281 l 0.0762,0 0,-0.113281 z m -29.2207,-4.878906 11.44531,0 0,34.429687 -11.44531,0 0,-34.429687 z"
         transform="matrix(0.98152091,0,0,-0.98152091,29.398887,102.14748)"
         id="path14"
         inkscape:connector-curvature="0" />
    </g>
  </g>
</svg>
