<?xml version="1.0" encoding="UTF-8" standalone="no"?>
<svg
   xmlns:dc="http://purl.org/dc/elements/1.1/"
   xmlns:cc="http://creativecommons.org/ns#"
   xmlns:rdf="http://www.w3.org/1999/02/22-rdf-syntax-ns#"
   xmlns:svg="http://www.w3.org/2000/svg"
   xmlns="http://www.w3.org/2000/svg"
   xmlns:sodipodi="http://sodipodi.sourceforge.net/DTD/sodipodi-0.dtd"
   xmlns:inkscape="http://www.inkscape.org/namespaces/inkscape"
   enable-background="new 0 0 32 32"
   height="48"
   id="Layer_1"
   version="1.0"
   viewBox="0 0 48 48"
   width="48"
   xml:space="preserve"
   inkscape:version="0.91 r13725"
   sodipodi:docname="youtube.svg"><metadata
     id="metadata25"><rdf:RDF><cc:Work
         rdf:about=""><dc:format>image/svg+xml</dc:format><dc:type
           rdf:resource="http://purl.org/dc/dcmitype/StillImage" /><dc:title></dc:title></cc:Work></rdf:RDF></metadata><defs
     id="defs23" /><sodipodi:namedview
     pagecolor="#ffffff"
     bordercolor="#666666"
     borderopacity="1"
     objecttolerance="10"
     gridtolerance="10"
     guidetolerance="10"
     inkscape:pageopacity="0"
     inkscape:pageshadow="2"
     inkscape:window-width="1920"
     inkscape:window-height="1018"
     id="namedview21"
     showgrid="false"
     inkscape:zoom="7.375"
     inkscape:cx="16"
     inkscape:cy="12"
     inkscape:window-x="-8"
     inkscape:window-y="-8"
     inkscape:window-maximized="1"
     inkscape:current-layer="Layer_1"
     fit-margin-top="0"
     fit-margin-left="0"
     fit-margin-right="0"
     fit-margin-bottom="0" /><g
     id="g3"
     transform="matrix(1.5004689,0,0,1.5004689,0,-0.013129)"><path
       d="m 31.67,9.179 c 0,0 -0.312,-2.353 -1.271,-3.389 C 29.182,4.432 27.819,4.424 27.194,4.347 22.717,4 16.002,4 16.002,4 L 15.987,4 C 15.987,4 9.272,4 4.796,4.347 4.171,4.424 2.809,4.432 1.591,5.79 0.633,6.826 0.32,9.179 0.32,9.179 0.32,9.179 0,11.94 0,14.701 l 0,2.588 c 0,2.763 0.32,5.523 0.32,5.523 0,0 0.312,2.352 1.271,3.386 1.218,1.358 2.815,1.317 3.527,1.459 C 7.677,27.919 15.995,28 15.995,28 c 0,0 6.722,-0.012 11.199,-0.355 0.625,-0.08 1.988,-0.088 3.205,-1.446 0.958,-1.034 1.271,-3.386 1.271,-3.386 0,0 0.32,-2.761 0.32,-5.523 l 0,-2.588 c 0,-2.762 -0.32,-5.523 -0.32,-5.523 z"
       id="path5"
       inkscape:connector-curvature="0"
       style="fill:#e02f2f" /><polygon
       points="12,22 22,16 12,10 "
       id="polygon7"
       style="fill:#ffffff" /></g><g
     id="g9"
     transform="translate(0,20)" /><g
     id="g11"
     transform="translate(0,20)" /><g
     id="g13"
     transform="translate(0,20)" /><g
     id="g15"
     transform="translate(0,20)" /><g
     id="g17"
     transform="translate(0,20)" /><g
     id="g19"
     transform="translate(0,20)" /></svg>